<svg xmlns="http://www.w3.org/2000/svg" xmlns:xlink="http://www.w3.org/1999/xlink" width="348.67" height="251" viewBox="0 0 348.67 251" role="img"><title>AI/MAXXI</title><g fill="#F1F0E8" opacity="1" transform="translate(70.33616298811546 0) scale(1.5182481751824817)"><path d="M0 63H23L62 24V53L77 38V0H35L20 15H48Z"/><path d="M51 72H74L122 24V53L137 38V0H95L80 15H108Z"/></g><g fill="#F1F0E8" transform="translate(-1.4601 251.0000) scale(0.0486701 -0.0486701)"><path d="M30 0 200 1760H797L964 0H631L606 284H394L372 0ZM419 565H579L502 1460H486ZM1056 0V1760H1396V0ZM1487 0 1897 1767H2261L1850 0ZM2366 0V1760H2902L3050 687L3197 1760H3738V0H3416V1268L3214 0H2898L2684 1268V0ZM3846 0 4016 1760H4613L4780 0H4447L4422 284H4210L4188 0ZM4235 565H4395L4318 1460H4302ZM4837 0 5026 933 4876 1761H5220L5311 1156L5392 1761H5737L5587 933L5775 0H5419L5308 688L5194 0ZM5828 0 6017 933 5867 1761H6211L6302 1156L6383 1761H6728L6578 933L6766 0H6410L6299 688L6185 0ZM6854 0V1760H7194V0Z"/></g></svg>