<svg xmlns="http://www.w3.org/2000/svg" xmlns:xlink="http://www.w3.org/1999/xlink" width="1080" height="1350" viewBox="0 0 1080 1350" role="img"><title>AI/MAXXI editable Transmission poster template</title><rect width="1080" height="1350" fill="#080A0B"/><g fill="#F1F0E8" transform="translate(53.4228 83.0000) scale(0.0192417 -0.0192417)"><path d="M30 0 200 1760H797L964 0H631L606 284H394L372 0ZM419 565H579L502 1460H486ZM1056 0V1760H1396V0ZM1487 0 1897 1767H2261L1850 0ZM2366 0V1760H2902L3050 687L3197 1760H3738V0H3416V1268L3214 0H2898L2684 1268V0ZM3846 0 4016 1760H4613L4780 0H4447L4422 284H4210L4188 0ZM4235 565H4395L4318 1460H4302ZM4837 0 5026 933 4876 1761H5220L5311 1156L5392 1761H5737L5587 933L5775 0H5419L5308 688L5194 0ZM5828 0 6017 933 5867 1761H6211L6302 1156L6383 1761H6728L6578 933L6766 0H6410L6299 688L6185 0ZM6854 0V1760H7194V0Z"/></g><text x="625" y="76" font-family="Space Mono" font-size="15" letter-spacing="2" fill="#8B969C">COMMUNITY TRANSMISSION</text><path d="M54 112H1026" stroke="#8B969C" stroke-opacity=".5"/><text x="54" y="180" font-family="Space Mono" font-size="20" letter-spacing="2" fill="#FF5A1F">PUBLIC SERVICE ANNOUNCEMENT</text><text id="headline-line-1" x="54" y="446" font-family="Anton" font-size="290.00" fill="#F1F0E8">MAXX</text><text id="headline-line-2" x="54" y="660" font-family="Anton" font-size="210.00" fill="#F1F0E8">THE FUTURE.</text><g id="replace-with-your-image"><rect x="54" y="731" width="640" height="377" fill="#151B1E"/><text x="96" y="927" font-family="Space Mono" font-size="18" letter-spacing="2" fill="#8B969C">YOUR IMAGE / YOUR IDEA</text></g><g fill="#FF5A1F" opacity="1" transform="translate(749 822) scale(2.021897810218978)"><path d="M0 63H23L62 24V53L77 38V0H35L20 15H48Z"/><path d="M51 72H74L122 24V53L137 38V0H95L80 15H108Z"/></g><text id="editable-caption" x="54" y="1203" font-family="Anton" font-size="49.00" fill="#F1F0E8">MAKE SOMETHING IMPOSSIBLE TO IGNORE.</text><text x="54" y="1287" font-family="Space Mono" font-size="16" letter-spacing="2" fill="#FF5A1F">BY YOUR NAME / SOURCE LINK</text></svg>